# xmcd CD database file
#
# Track frame offsets:
#	150
#	13944
#	28120
#	43255
#	57987
#	72480
#	107949
#	123405
#	137410
#	151696
#	164459
#	178883
#	194109
#	209837
#	224712
#	239138
#	251365
#	266108
#
# Disc length: 3714 seconds
#
# Revision: 0
# Processed by: cddbd v1.4PL0 Copyright (c) Steve Scherf et al.
# Submitted via: CDex 1.50beta10
#
DISCID=2a0e8012
DTITLE=Benny Goodman - All The Cats Join In
DYEAR=2001
DGENRE=Blues
TTITLE0=Fascinating Rhythm 
TTITLE1=Lucky
TTITLE2=Rattle and Roll
TTITLE3=Swing Angel
TTITLE4=All The Cats Join In
TTITLE5=Oh Baby
TTITLE6=Fly By Night
TTITLE7=Put That Kiss Back Where You Found It
TTITLE8=Lonely Moments
TTITLE9=Whistle Blues
TTITLE10=Undercurrent Blues
TTITLE11=Shishkabop
TTITLE12=The Huckle-Buck
TTITLE13=Bop Hop
TTITLE14=Trees
TTITLE15=Dreazag
TTITLE16=Fiesta Time
TTITLE17=Egg Head
EXTD=YEAR: 2001
EXTT0=
EXTT1=
EXTT2=
EXTT3=
EXTT4=
EXTT5=
EXTT6=
EXTT7=
EXTT8=
EXTT9=
EXTT10=
EXTT11=
EXTT12=
EXTT13=
EXTT14=
EXTT15=
EXTT16=
EXTT17=
PLAYORDER=
